<svg xmlns="http://www.w3.org/2000/svg" viewBox="0 0 560 112">
  <g transform="translate(8 4)">
    <circle cx="52" cy="52" r="49" fill="#5d6671" stroke="#d9dfe6" stroke-width="3" />
    <circle cx="52" cy="52" r="36.5" fill="#1da7dd" />
    <path
      d="M20 63V37h14c3.7 0 6.7-3 6.7-6.7V17h21v18c0 3.7 3 6.7 6.7 6.7h16v21H69c-3.7 0-6.7 3-6.7 6.7V87h-21V70c0-3.7-3-6.7-6.7-6.7Z"
      fill="none"
      stroke="#ffffff"
      stroke-linejoin="round"
      stroke-width="5.6"
    />
    <path
      d="M92 47v20H76c-3.7 0-6.7 3-6.7 6.7V91h-21V74c0-3.7-3-6.7-6.7-6.7H25V47h16c3.7 0 6.7-3 6.7-6.7V24h21v16.3c0 3.7 3 6.7 6.7 6.7Z"
      fill="none"
      stroke="#ef2334"
      stroke-linejoin="round"
      stroke-width="5.6"
    />
  </g>
  <text x="128" y="48" fill="#57616b" font-family="Arial, sans-serif" font-size="35" font-weight="700" letter-spacing="1.6">
    AFIAX
  </text>
  <text x="128" y="74" fill="#57616b" font-family="Arial, sans-serif" font-size="18" font-weight="700" letter-spacing="1.4">
    CONNECTED
  </text>
  <text x="128" y="96" fill="#1da7dd" font-family="Arial, sans-serif" font-size="18" font-weight="700" letter-spacing="1.4">
    HEALTHCARE
  </text>
</svg>
